<svg height="512pt" viewBox="0 -72 512.00088 512" width="512pt" xmlns="http://www.w3.org/2000/svg"><path d="m307.167969 14.96875c49.121093 7.539062 86.160156 50.765625 86.160156 100.578125 0 3.226563 1.460937 6.203125 4.007813 8.167969 2.53125 1.945312 5.75 2.597656 8.835937 1.777344 6.972656-1.847657 14.210937-2.65625 21.503906-2.40625 33.722657 1.152343 62.277344 25.050781 69.4375 58.113281.765625 3.527343 3.882813 5.9375 7.351563 5.9375.527344 0 1.0625-.058594 1.601562-.171875 4.0625-.882813 6.640625-4.890625 5.761719-8.953125-4.109375-18.972657-14.628906-36.398438-29.613281-49.0625-15.164063-12.808594-34.351563-20.234375-54.027344-20.910157-6.726562-.226562-13.410156.292969-19.953125 1.550782-1.316406-25.941406-11.25-50.773438-28.304687-70.472656-18.164063-20.980469-43.191407-34.839844-70.476563-39.0273442-4.117187-.6328128-7.953125 2.1875002-8.582031 6.2968752-.632813 4.109375 2.1875 7.949219 6.296875 8.582031zm0 0"/><path d="m.101562 191.480469c-1.164062 24.800781 7.605469 48.324219 24.695313 66.234375 17.101563 17.921875 40.152344 27.789062 64.914063 27.789062h21.703124c.984376 2.46875 2.472657 4.78125 4.464844 6.777344l55.558594 55.554688c3.941406 3.941406 9.121094 5.914062 14.300781 5.914062 5.179688 0 10.359375-1.96875 14.304688-5.914062.5-.5.96875-1.019532 1.402343-1.554688-.339843 3.191406.085938 6.441406 1.292969 9.515625 1.976563 5.027344 5.789063 8.988281 10.746094 11.144531 2.589844 1.128906 5.328125 1.695313 8.074219 1.695313 2.5 0 5.003906-.46875 7.402344-1.410157 5.03125-1.976562 8.988281-5.792968 11.148437-10.75l30.925781-70.972656h66.402344l-33.601562 33.601563c-7.882813 7.886719-7.882813 20.71875 0 28.605469 3.824218 3.820312 8.902343 5.925781 14.304687 5.925781s10.484375-2.105469 14.304687-5.925781l55.433594-55.433594c1.992188-1.992188 3.480469-4.304688 4.464844-6.773438h32.742188c20.253906 0 40.0625-7.003906 55.78125-19.71875 15.484374-12.53125 26.414062-30.070312 30.785156-49.394531.914062-4.054687-1.628906-8.082031-5.683594-9-4.058594-.917969-8.085938 1.625-9.003906 5.683594-7.515625 33.246093-37.742188 57.375-71.878906 57.375h-32.722657c-1.003906-2.507813-2.515625-4.808594-4.484375-6.777344l-55.433594-55.429687c-7.886718-7.886719-20.71875-7.886719-28.605468 0-.246094.246093-.484375.496093-.714844.75.023438-.339844.039062-.675782.042969-1.015626 0-.023437.003906-.046874.003906-.066406.011719-.59375-.011719-1.1875-.054687-1.78125-.003907-.089844-.011719-.179687-.019532-.273437-.046875-.570313-.121094-1.136719-.222656-1.707031-.015625-.101563-.035156-.199219-.050781-.300782-.109375-.570312-.238281-1.140625-.398438-1.707031-.019531-.074219-.042969-.144531-.066406-.21875-.171875-.59375-.367187-1.183594-.59375-1.765625-1.976563-5.027344-5.792969-8.988281-10.75-11.144531-.628906-.273438-1.269531-.515625-1.917969-.722657-.117187-.039062-.234375-.058593-.351562-.097656-.535156-.160156-1.074219-.3125-1.617188-.425781-.039062-.011719-.082031-.011719-.125-.023437-3.804687-.789063-7.761718-.46875-11.464844.988281-3.71875 1.460937-6.847656 3.933593-9.101562 7.125-.015625.019531-.03125.035156-.042969.054687-.328125.46875-.628906.957032-.917969 1.453125-.054687.09375-.117187.179688-.171874.273438-.332032.59375-.636719 1.207031-.914063 1.839843l-30.925781 70.972657h-67.144532l33.726563-33.726563c3.941406-3.941406 5.914063-9.121094 5.914063-14.300781 0-5.183594-1.972657-10.359375-5.914063-14.304687-3.453125-3.449219-7.847656-5.390626-12.363281-5.824219-.257813-.023438-.519532-.019531-.777344-.035157-.386719-.023437-.777344-.054687-1.164062-.054687-.355469 0-.707032.03125-1.058594.046875-.292969.015625-.589844.015625-.882813.042969-1.089843.105469-2.167969.316406-3.230469.597656-.195312.050781-.398437.085937-.589843.140625-.171875.050781-.335938.121094-.503907.175781-.453124.148438-.90625.292969-1.351562.472657-.207031.085937-.40625.191406-.613281.285156-2.199219.976562-4.269531 2.347656-6.074219 4.152344l-55.554688 55.554687c-.257812.253906-.480468.53125-.71875.792969-1.609374 1.789062-2.890624 3.800781-3.765624 5.984375h-21.6875c-20.605469 0-39.789063-8.214844-54.019532-23.128907-14.222656-14.90625-21.519531-34.484374-20.550781-55.136718 1.785156-38.003906 32.960937-69.171875 70.980469-70.957032 5.917968-.277343 11.839844.132813 17.601562 1.230469 5.898438 1.117188 11.871094-1.027343 15.59375-5.589843 13.820313-16.9375 35.667969-24.648438 57.027344-20.113282 7.726562 1.640625 15.574219-3.03125 17.871094-10.640625 11.042968-36.660156 42.535156-64.484375 80.226562-70.886719 4.101563-.695312 6.859375-4.582031 6.164063-8.679687-.699219-4.097656-4.578125-6.855469-8.683594-6.160156-21.464844 3.644531-41.453125 13.246093-57.800781 27.765625-16.226563 14.40625-28.09375 32.949218-34.320313 53.617187-.054687.183594-.214843.28125-.328125.257813-26.902344-5.710938-54.421875 3.996094-71.820312 25.324218-.273438.335938-.761719.378907-1.125.3125-6.917969-1.3125-14.027344-1.8125-21.113282-1.476562-22.210937 1.042969-43.1875 10.359375-59.066406 26.230469-15.882812 15.878906-25.203125 36.851562-26.246094 59.0625zm189.296876 145.710937c-2.015626 2.015625-5.296876 2.015625-7.316407 0l-55.554687-55.554687c-1.488282-1.488281-1.867188-3.660157-1.164063-5.507813.011719-.035156.019531-.070312.03125-.101562.097657-.242188.230469-.472656.367188-.699219.039062-.066406.066406-.140625.109375-.207031.152344-.226563.339844-.4375.527344-.644532.046874-.050781.082031-.109374.128906-.15625l55.558594-55.558593c.976562-.976563 2.277343-1.515625 3.65625-1.515625 1.382812 0 2.683593.539062 3.660156 1.515625 2.015625 2.019531 2.015625 5.300781 0 7.316406l-46.574219 46.574219c-.246094.246094-.460937.503906-.664063.769531-.046874.0625-.089843.125-.136718.1875-.394532.550781-.707032 1.144531-.933594 1.761719-.023438.058594-.042969.121094-.0625.183594-.105469.308593-.195312.621093-.261719.941406v.015625c-.066406.320312-.101562.644531-.121093.972656-.007813.074219-.011719.152344-.011719.226563-.023438.664062.039062 1.324218.191406 1.972656.011719.0625.027344.125.046875.191406.167969.65625.429688 1.292969.78125 1.894531.03125.054688.0625.109375.097656.164063.175782.28125.363282.558594.582032.820312.019531.023438.042968.046875.0625.070313.136718.160156.277343.320312.429687.472656l46.574219 46.574219c2.015625 2.019531 2.015625 5.304687-.003906 7.320312zm36.910156 13.273438c-.554688 1.269531-1.566406 2.246094-2.851563 2.75-1.285156.503906-2.691406.480468-3.957031-.074219-1.269531-.550781-2.242188-1.5625-2.75-2.847656-.503906-1.285157-.480469-2.691407.074219-3.960938l61.371093-140.84375c.140626-.324219.3125-.625.507813-.90625.03125-.039062.070313-.074219.097656-.113281.175781-.234375.363281-.460938.570313-.660156.007812-.007813.019531-.011719.027344-.019532.96875-.90625 2.257812-1.414062 3.582031-1.402343.171875 0 .339843.03125.511719.050781.171874.019531.339843.019531.507812.058594.253906.054687.5.144531.746094.238281.085937.03125.171875.042969.257812.082031.949219.414063 1.734375 1.085938 2.28125 1.941406.183594.28125.339844.585938.464844.910157.128906.320312.222656.648437.28125.980469.058594.332031.085938.667968.082031 1.003906-.011719.671875-.15625 1.339844-.433593 1.972656zm71.648437-126.742188c.007813.136719.03125.273438.042969.410156.023438.269532.050781.539063.082031.808594.042969.355469.09375.707032.152344 1.058594.046875.265625.097656.535156.15625.800781.074219.351563.160156.695313.253906 1.042969.070313.261719.144531.523438.222657.785156.109374.34375.234374.683594.359374 1.027344.09375.25.1875.503906.292969.753906.144531.34375.304688.679688.46875 1.015625.117188.238281.230469.476563.355469.710938.183594.34375.390625.679687.597656 1.015625.132813.214844.253906.429687.394532.640625.242187.363281.511718.714843.78125 1.0625.128906.167969.246093.347656.386718.511719.417969.511718.859375 1.007812 1.335938 1.480468l33.601562 33.601563h-59.84375zm16.527344-4.835937c.253906-.25.523437-.46875.804687-.65625.054688-.035157.109376-.054688.160157-.085938.242187-.148437.488281-.285156.742187-.390625.027344-.011718.054688-.011718.078125-.023437.601563-.234375 1.234375-.355469 1.875-.355469.636719 0 1.269531.121094 1.871094.355469.027344.011719.054687.011719.078125.023437.257812.105469.5.242188.742188.390625.050781.03125.109374.050781.160156.085938.285156.1875.554687.40625.804687.65625l55.433594 55.433593c.25.25.46875.519532.65625.804688.035156.050781.054687.109375.089844.164062.144531.238282.28125.484376.386719.738282.007812.023437.011718.050781.023437.078125.714844 1.851562.335937 4.035156-1.15625 5.53125l-55.433594 55.429687c-.976562.980469-2.277343 1.515625-3.660156 1.515625-1.378906 0-2.679687-.535156-3.65625-1.515625-2.019531-2.015625-2.019531-5.296875 0-7.316406l46.453125-46.449219c.15625-.160156.300781-.324219.441406-.492187.015625-.015625.03125-.03125.042969-.046875.210937-.257813.398437-.527344.570313-.804688.042968-.066406.082031-.132812.121093-.203125.335938-.578125.59375-1.203125.769531-1.851562.019532-.074219.039063-.152344.054688-.230469.074219-.316406.132812-.640625.167969-.96875 0-.019531 0-.042969 0-.066406.019531-.21875.035156-.4375.035156-.660157 0-.085937-.011719-.167968-.011719-.253906-.003906-.085937-.007812-.167968-.015625-.253906-.019531-.320312-.054687-.640625-.117187-.953125 0-.003906 0-.007813 0-.007813-.0625-.320312-.15625-.632812-.257813-.9375-.027343-.078124-.054687-.15625-.085937-.234374-.109375-.289063-.230469-.574219-.375-.851563-.003906-.015625-.011719-.03125-.019532-.042969-.152343-.289062-.332031-.5625-.519531-.828125-.050781-.070312-.097656-.132812-.148437-.199219-.199219-.265624-.414063-.523437-.652344-.761718l-46.453125-46.453125c-2.015625-2.011719-2.015625-5.296875 0-7.3125zm-108.527344 114.691406c.011719-5.195313-1.957031-10.394531-5.910156-14.347656l-33.726563-33.726563h60.585938zm0 0"/></svg>