<?xml version="1.0" encoding="iso-8859-1"?>
<!-- Generator: Adobe Illustrator 19.0.0, SVG Export Plug-In . SVG Version: 6.00 Build 0)  -->
<svg version="1.1" id="Capa_1" xmlns="http://www.w3.org/2000/svg" xmlns:xlink="http://www.w3.org/1999/xlink" x="0px" y="0px"
	 viewBox="0 0 512 512" style="enable-background:new 0 0 512 512;" xml:space="preserve">
<g>
	<g>
		<path d="M504.5,156.146c-4.143,0-7.5,3.358-7.5,7.5v160.238H310.834V39.755h156.844c16.168,0,29.321,13.154,29.321,29.322v63.951
			c0,4.142,3.357,7.5,7.5,7.5s7.5-3.358,7.5-7.5V69.077c0-24.439-19.883-44.322-44.321-44.322h-211.37c-4.143,0-7.5,3.358-7.5,7.5
			c0,4.142,3.357,7.5,7.5,7.5h39.526v171.137H15V69.077c0-16.168,13.153-29.322,29.321-29.322H225.69c4.143,0,7.5-3.358,7.5-7.5
			c0-4.142-3.357-7.5-7.5-7.5H44.321C19.883,24.755,0,44.638,0,69.077v314.87c0,13.119,10.673,23.792,23.792,23.792H83.69
			c4.143,0,7.5-3.358,7.5-7.5c0-4.142-3.357-7.5-7.5-7.5H23.792c-4.848,0-8.792-3.944-8.792-8.792v-45.063h481.999v45.063
			c0,4.848-3.944,8.792-8.792,8.792H114.308c-4.143,0-7.5,3.358-7.5,7.5c0,4.142,3.357,7.5,7.5,7.5h74.004
			c-4.972,16.918-14.827,37.165-34.359,51.987c-5.322,4.04-7.384,10.743-5.253,17.078c2.135,6.343,7.837,10.441,14.527,10.441
			h185.546c6.69,0,12.393-4.099,14.527-10.441c2.131-6.335,0.069-13.038-5.253-17.077c-19.549-14.836-29.399-35.123-34.359-51.988
			h164.52c13.119,0,23.792-10.673,23.792-23.792V163.646C512,159.504,508.643,156.146,504.5,156.146z M295.834,323.884H15v-97.992
			h280.834V323.884z M348.979,471.676c0.097,0.073,0.13,0.119,0.132,0.119c0.03,0.108-0.061,0.37-0.146,0.429
			c-0.001,0-0.054,0.021-0.192,0.021H163.227c-0.132,0-0.187-0.019-0.188-0.019c-0.091-0.063-0.182-0.325-0.154-0.423
			c0,0,0.03-0.048,0.136-0.128c24.362-18.488,35.639-43.899,40.854-63.937h104.249C313.322,427.696,324.588,453.165,348.979,471.676
			z"/>
	</g>
</g>
<g>
	<g>
		<path d="M256,347.138c-10.297,0-18.674,8.377-18.674,18.673c0,10.296,8.377,18.673,18.674,18.673
			c10.296,0.001,18.673-8.376,18.673-18.673C274.673,355.515,266.296,347.138,256,347.138z M256,369.484
			c-2.026,0-3.674-1.647-3.674-3.673c0-2.025,1.648-3.673,3.674-3.673s3.673,1.648,3.673,3.673
			C259.673,367.836,258.026,369.484,256,369.484z"/>
	</g>
</g>
<g>
	<g>
		<path d="M174.37,104.475l-31.011-15.392c-4.488-2.227-9.703-1.981-13.96,0.658c-4.255,2.639-6.796,7.204-6.796,12.211v30.786
			c0,5.008,2.541,9.573,6.796,12.211c2.326,1.442,4.938,2.169,7.563,2.169c2.178,0,4.362-0.501,6.397-1.511l31.011-15.393
			c4.922-2.443,7.979-7.375,7.979-12.87C182.349,111.849,179.292,106.918,174.37,104.475z M137.604,131.719v-28.747l28.956,14.373
			L137.604,131.719z"/>
	</g>
</g>
<g>
	<g>
		<path d="M381.494,61.632h-31.988c-7.711,0-13.984,6.273-13.984,13.984v31.988c0,7.711,6.273,13.984,13.984,13.984h31.988
			c7.711,0,13.983-6.273,13.983-13.984V75.616C395.477,67.905,389.205,61.632,381.494,61.632z M380.477,106.589h-29.956V76.632
			h29.956V106.589z"/>
	</g>
</g>
<g>
	<g>
		<path d="M431.366,60.062h-15.665c-4.143,0-7.5,3.358-7.5,7.5c0,4.142,3.358,7.5,7.5,7.5h15.665c4.143,0,7.5-3.358,7.5-7.5
			C438.866,63.42,435.509,60.062,431.366,60.062z"/>
	</g>
</g>
<g>
	<g>
		<path d="M461.977,87.174h-46.275c-4.143,0-7.5,3.358-7.5,7.5c0,4.142,3.357,7.5,7.5,7.5h46.275c4.143,0,7.5-3.358,7.5-7.5
			C469.477,90.532,466.119,87.174,461.977,87.174z"/>
	</g>
</g>
<g>
	<g>
		<path d="M461.977,105.568h-46.275c-4.143,0-7.5,3.358-7.5,7.5c0,4.142,3.357,7.5,7.5,7.5h46.275c4.143,0,7.5-3.358,7.5-7.5
			C469.477,108.926,466.119,105.568,461.977,105.568z"/>
	</g>
</g>
<g>
	<g>
		<path d="M381.494,153.361h-31.988c-7.711,0-13.984,6.273-13.984,13.984v31.988c0,7.711,6.273,13.984,13.984,13.984h31.988
			c7.711,0,13.983-6.273,13.983-13.984v-31.988C395.477,159.634,389.205,153.361,381.494,153.361z M380.477,198.317h-29.956v-29.956
			h29.956V198.317z"/>
	</g>
</g>
<g>
	<g>
		<path d="M431.366,151.79h-15.665c-4.143,0-7.5,3.358-7.5,7.5c0,4.142,3.358,7.5,7.5,7.5h15.665c4.143,0,7.5-3.358,7.5-7.5
			C438.866,155.148,435.509,151.79,431.366,151.79z"/>
	</g>
</g>
<g>
	<g>
		<path d="M461.977,178.902h-46.275c-4.143,0-7.5,3.358-7.5,7.5c0,4.142,3.357,7.5,7.5,7.5h46.275c4.143,0,7.5-3.358,7.5-7.5
			C469.477,182.26,466.119,178.902,461.977,178.902z"/>
	</g>
</g>
<g>
	<g>
		<path d="M461.977,197.297h-46.275c-4.143,0-7.5,3.358-7.5,7.5c0,4.142,3.357,7.5,7.5,7.5h46.275c4.143,0,7.5-3.358,7.5-7.5
			C469.477,200.655,466.119,197.297,461.977,197.297z"/>
	</g>
</g>
<g>
	<g>
		<path d="M381.493,245.089h-31.988c-7.711,0-13.984,6.273-13.984,13.984v31.988c0,7.711,6.273,13.984,13.984,13.984h31.988
			c7.711,0,13.983-6.273,13.983-13.984v-31.988C395.477,251.363,389.204,245.089,381.493,245.089z M380.477,290.046h-29.956v-29.957
			h29.956V290.046z"/>
	</g>
</g>
<g>
	<g>
		<path d="M431.366,243.519h-15.665c-4.143,0-7.5,3.358-7.5,7.5c0,4.142,3.358,7.5,7.5,7.5h15.665c4.143,0,7.5-3.358,7.5-7.5
			C438.866,246.877,435.509,243.519,431.366,243.519z"/>
	</g>
</g>
<g>
	<g>
		<path d="M461.977,270.631h-46.275c-4.143,0-7.5,3.358-7.5,7.5c0,4.142,3.357,7.5,7.5,7.5h46.275c4.143,0,7.5-3.358,7.5-7.5
			C469.477,273.989,466.119,270.631,461.977,270.631z"/>
	</g>
</g>
<g>
	<g>
		<path d="M461.977,289.025h-46.275c-4.143,0-7.5,3.358-7.5,7.5c0,4.142,3.357,7.5,7.5,7.5h46.275c4.143,0,7.5-3.358,7.5-7.5
			C469.477,292.383,466.119,289.025,461.977,289.025z"/>
	</g>
</g>
<g>
	<g>
		<path d="M271.976,244.527h-21.104c-4.143,0-7.5,3.358-7.5,7.5c0,4.142,3.357,7.5,7.5,7.5h21.104c4.143,0,7.5-3.358,7.5-7.5
			C279.476,247.885,276.119,244.527,271.976,244.527z"/>
	</g>
</g>
<g>
	<g>
		<path d="M271.977,283.535h-21.104c-4.143,0-7.5,3.358-7.5,7.5c0,4.142,3.357,7.5,7.5,7.5h21.104c4.143,0,7.5-3.358,7.5-7.5
			C279.477,286.893,276.119,283.535,271.977,283.535z"/>
	</g>
</g>
<g>
	<g>
		<path d="M192.696,244.527H42.742c-4.143,0-7.5,3.358-7.5,7.5c0,4.142,3.357,7.5,7.5,7.5h149.954c4.143,0,7.5-3.358,7.5-7.5
			C200.196,247.885,196.839,244.527,192.696,244.527z"/>
	</g>
</g>
<g>
	<g>
		<path d="M73.478,269.05H42.742c-4.143,0-7.5,3.358-7.5,7.5c0,4.142,3.357,7.5,7.5,7.5h30.735c4.143,0,7.5-3.358,7.5-7.5
			C80.977,272.408,77.62,269.05,73.478,269.05z"/>
	</g>
</g>
<g>
	<g>
		<path d="M73.478,293.544H42.742c-4.143,0-7.5,3.358-7.5,7.5c0,4.142,3.357,7.5,7.5,7.5h30.735c4.143,0,7.5-3.358,7.5-7.5
			C80.977,296.902,77.62,293.544,73.478,293.544z"/>
	</g>
</g>
<g>
</g>
<g>
</g>
<g>
</g>
<g>
</g>
<g>
</g>
<g>
</g>
<g>
</g>
<g>
</g>
<g>
</g>
<g>
</g>
<g>
</g>
<g>
</g>
<g>
</g>
<g>
</g>
<g>
</g>
</svg>
