<svg height="512pt" viewBox="-35 0 512 512.001" width="512pt" xmlns="http://www.w3.org/2000/svg"><path d="m375.285156 0h-308.515625c-36.816406 0-66.769531 29.953125-66.769531 66.773438v20.539062c0 25.757812 14.667969 48.140625 36.082031 59.273438-21.414062 11.132812-36.082031 33.515624-36.082031 59.273437v20.539063c0 25.753906 14.667969 48.136718 36.082031 59.269531-21.414062 11.132812-36.082031 33.515625-36.082031 59.273437v20.539063c0 36.820312 29.953125 66.773437 66.773438 66.773437h146.753906v16.085938h-.035156c-6.363282 0-11.542969 5.175781-11.542969 11.542968v13.960938h-30.882813c-6.363281 0-11.542968 5.175781-11.542968 11.542969v.742187h-65.191407c-4.144531 0-7.5 3.359375-7.5 7.5 0 4.144532 3.355469 7.5 7.5 7.5h65.226563c.351562 6.054688 5.371094 10.871094 11.507812 10.871094h32.460938c4.144531 0 7.5-3.355469 7.5-7.5s-3.355469-7.5-7.5-7.5h-29.003906v-8.15625h34.925781c4.144531 0 7.5-3.355469 7.5-7.5v-18.003906h8.15625v18.003906c0 4.144531 3.359375 7.5 7.503906 7.5h34.925781v8.15625h-29.003906c-4.144531 0-7.5 3.355469-7.5 7.5s3.355469 7.5 7.5 7.5h32.457031c6.140625 0 11.160157-4.816406 11.511719-10.871094h65.226562c4.144532 0 7.5-3.355468 7.5-7.5 0-4.140625-3.355468-7.5-7.5-7.5h-65.191406v-.742187c0-6.367188-5.179687-11.542969-11.546875-11.542969h-30.878906v-13.960938c0-6.367187-5.179687-11.542968-11.546875-11.542968h-.03125v-16.085938h146.753906c36.816406 0 66.773438-29.953125 66.773438-66.773437v-20.539063c0-25.757812-14.671875-48.140625-36.085938-59.273437 19.007813-9.871094 32.820313-28.628907 35.570313-51.128907.503906-4.109374-2.421875-7.851562-6.53125-8.355468-4.121094-.507813-7.855469 2.425781-8.355469 6.535156-3.167969 25.910156-25.253906 45.449219-51.371094 45.449219h-308.515625c-28.542969 0-51.769531-23.222657-51.769531-51.769531v-20.539063c0-28.546875 23.226562-51.773437 51.769531-51.773437h308.515625c26.117188 0 48.199219 19.539062 51.367188 45.449218.503906 4.113282 4.25 7.035156 8.355468 6.535156 4.109376-.503906 7.039063-4.242187 6.535157-8.355468-2.75-22.5-16.566407-41.257813-35.570313-51.128906 21.414063-11.132813 36.082032-33.515626 36.082032-59.273438v-20.539062c0-36.820313-29.953126-66.773438-66.769532-66.773438zm51.769532 344.941406v20.539063c0 28.546875-23.222657 51.773437-51.769532 51.773437h-308.515625c-28.542969 0-51.769531-23.226562-51.769531-51.773437v-20.539063c0-28.546875 23.226562-51.773437 51.769531-51.773437h308.515625c28.546875 0 51.769532 23.226562 51.769532 51.773437zm0-257.628906c0 28.546875-23.222657 51.773438-51.769532 51.773438h-308.515625c-28.542969 0-51.769531-23.226563-51.769531-51.773438v-20.539062c0-28.546876 23.226562-51.773438 51.769531-51.773438h308.515625c28.546875 0 51.769532 23.226562 51.769532 51.773438zm0 0"/><path d="m370.109375 25.882812h-298.160156c-25.402344 0-46.066407 20.664063-46.066407 46.066407v10.1875c0 25.402343 20.664063 46.066406 46.066407 46.066406h298.160156c25.398437 0 46.0625-20.664063 46.0625-46.066406v-10.1875c0-25.402344-20.664063-46.066407-46.0625-46.066407zm31.0625 56.253907c0 17.128906-13.9375 31.0625-31.0625 31.0625h-298.160156c-17.128907 0-31.066407-13.933594-31.066407-31.0625v-10.1875c0-17.128907 13.9375-31.066407 31.066407-31.066407h298.160156c17.128906 0 31.0625 13.9375 31.0625 31.066407zm0 0"/><path d="m153.410156 55.023438h-71.734375c-12.140625 0-22.019531 9.878906-22.019531 22.019531s9.878906 22.019531 22.019531 22.019531h71.734375c12.144532 0 22.019532-9.878906 22.019532-22.019531s-9.875-22.019531-22.019532-22.019531zm0 29.039062h-71.734375c-3.871093 0-7.019531-3.148438-7.019531-7.019531 0-3.871094 3.148438-7.019531 7.019531-7.019531h71.734375c3.871094 0 7.019532 3.148437 7.019532 7.019531 0 3.867187-3.148438 7.019531-7.019532 7.019531zm0 0"/><path d="m216.589844 69.542969h-4.53125c-4.140625 0-7.5 3.355469-7.5 7.5 0 4.140625 3.359375 7.5 7.5 7.5h4.53125c4.144531 0 7.503906-3.359375 7.503906-7.5 0-4.144531-3.359375-7.5-7.503906-7.5zm0 0"/><path d="m253.21875 69.542969h-4.535156c-4.140625 0-7.5 3.355469-7.5 7.5 0 4.140625 3.359375 7.5 7.5 7.5h4.535156c4.140625 0 7.5-3.359375 7.5-7.5 0-4.144531-3.359375-7.5-7.5-7.5zm0 0"/><path d="m289.84375 69.542969h-4.53125c-4.144531 0-7.503906 3.355469-7.503906 7.5 0 4.140625 3.359375 7.5 7.503906 7.5h4.53125c4.140625 0 7.5-3.359375 7.5-7.5 0-4.144531-3.359375-7.5-7.5-7.5zm0 0"/><path d="m326.46875 69.542969h-4.53125c-4.144531 0-7.5 3.355469-7.5 7.5 0 4.140625 3.355469 7.5 7.5 7.5h4.53125c4.144531 0 7.5-3.359375 7.5-7.5 0-4.144531-3.355469-7.5-7.5-7.5zm0 0"/><path d="m363.09375 69.542969h-4.53125c-4.144531 0-7.5 3.355469-7.5 7.5 0 4.140625 3.355469 7.5 7.5 7.5h4.53125c4.144531 0 7.5-3.359375 7.5-7.5 0-4.144531-3.355469-7.5-7.5-7.5zm0 0"/><path d="m153.410156 194.109375h-71.734375c-12.140625 0-22.019531 9.875-22.019531 22.019531 0 12.140625 9.878906 22.015625 22.019531 22.015625h71.734375c12.144532 0 22.019532-9.875 22.019532-22.015625 0-12.144531-9.875-22.019531-22.019532-22.019531zm0 29.035156h-71.734375c-3.871093 0-7.019531-3.148437-7.019531-7.019531s3.148438-7.015625 7.019531-7.015625h71.734375c3.871094 0 7.019532 3.144531 7.019532 7.015625s-3.148438 7.019531-7.019532 7.019531zm0 0"/><path d="m216.589844 208.625h-4.53125c-4.140625 0-7.5 3.355469-7.5 7.5s3.359375 7.5 7.5 7.5h4.53125c4.144531 0 7.503906-3.355469 7.503906-7.5s-3.359375-7.5-7.503906-7.5zm0 0"/><path d="m253.21875 208.625h-4.535156c-4.140625 0-7.5 3.355469-7.5 7.5s3.359375 7.5 7.5 7.5h4.535156c4.140625 0 7.5-3.355469 7.5-7.5s-3.359375-7.5-7.5-7.5zm0 0"/><path d="m289.84375 208.625h-4.53125c-4.144531 0-7.503906 3.355469-7.503906 7.5s3.359375 7.5 7.503906 7.5h4.53125c4.140625 0 7.5-3.355469 7.5-7.5s-3.359375-7.5-7.5-7.5zm0 0"/><path d="m326.46875 208.625h-4.53125c-4.144531 0-7.5 3.355469-7.5 7.5s3.355469 7.5 7.5 7.5h4.53125c4.144531 0 7.5-3.355469 7.5-7.5s-3.355469-7.5-7.5-7.5zm0 0"/><path d="m363.09375 208.625h-4.53125c-4.144531 0-7.5 3.355469-7.5 7.5s3.355469 7.5 7.5 7.5h4.53125c4.144531 0 7.5-3.355469 7.5-7.5s-3.355469-7.5-7.5-7.5zm0 0"/><path d="m71.949219 304.050781c-25.402344 0-46.066407 20.664063-46.066407 46.066407v10.1875c0 25.402343 20.664063 46.066406 46.066407 46.066406h298.160156c25.398437 0 46.0625-20.664063 46.0625-46.066406v-10.1875c0-25.402344-20.664063-46.066407-46.0625-46.066407zm329.222656 46.066407v10.1875c0 17.128906-13.9375 31.066406-31.0625 31.066406h-298.160156c-17.128907 0-31.066407-13.9375-31.066407-31.066406v-10.1875c0-17.128907 13.9375-31.066407 31.066407-31.066407h298.160156c17.128906 0 31.0625 13.9375 31.0625 31.066407zm0 0"/><path d="m153.410156 333.191406h-71.734375c-12.140625 0-22.019531 9.878906-22.019531 22.019532 0 12.140624 9.878906 22.019531 22.019531 22.019531h71.734375c12.144532 0 22.019532-9.878907 22.019532-22.019531 0-12.140626-9.875-22.019532-22.019532-22.019532zm0 29.035156h-71.734375c-3.871093 0-7.019531-3.148437-7.019531-7.015624 0-3.871094 3.148438-7.019532 7.019531-7.019532h71.734375c3.871094 0 7.019532 3.148438 7.019532 7.019532 0 3.867187-3.148438 7.015624-7.019532 7.015624zm0 0"/><path d="m216.589844 347.710938h-4.53125c-4.140625 0-7.5 3.355468-7.5 7.5 0 4.140624 3.359375 7.5 7.5 7.5h4.53125c4.144531 0 7.503906-3.359376 7.503906-7.5 0-4.144532-3.359375-7.5-7.503906-7.5zm0 0"/><path d="m253.21875 347.710938h-4.535156c-4.140625 0-7.5 3.355468-7.5 7.5 0 4.140624 3.359375 7.5 7.5 7.5h4.535156c4.140625 0 7.5-3.359376 7.5-7.5 0-4.144532-3.359375-7.5-7.5-7.5zm0 0"/><path d="m289.84375 347.710938h-4.53125c-4.144531 0-7.503906 3.355468-7.503906 7.5 0 4.140624 3.359375 7.5 7.503906 7.5h4.53125c4.140625 0 7.5-3.359376 7.5-7.5 0-4.144532-3.359375-7.5-7.5-7.5zm0 0"/><path d="m326.46875 347.710938h-4.53125c-4.144531 0-7.5 3.355468-7.5 7.5 0 4.140624 3.355469 7.5 7.5 7.5h4.53125c4.144531 0 7.5-3.359376 7.5-7.5 0-4.144532-3.355469-7.5-7.5-7.5zm0 0"/><path d="m363.09375 347.710938h-4.53125c-4.144531 0-7.5 3.355468-7.5 7.5 0 4.140624 3.355469 7.5 7.5 7.5h4.53125c4.144531 0 7.5-3.359376 7.5-7.5 0-4.144532-3.355469-7.5-7.5-7.5zm0 0"/><path d="m370.109375 164.96875h-298.160156c-25.402344 0-46.066407 20.664062-46.066407 46.0625v10.191406c0 25.398438 20.664063 46.0625 46.066407 46.0625h298.160156c25.398437 0 46.0625-20.664062 46.0625-46.0625v-10.191406c0-25.398438-20.664063-46.0625-46.0625-46.0625zm31.0625 56.25c0 17.128906-13.9375 31.066406-31.0625 31.066406h-298.160156c-17.128907 0-31.066407-13.9375-31.066407-31.066406v-10.1875c0-17.128906 13.9375-31.0625 31.066407-31.0625h298.160156c17.128906 0 31.0625 13.933594 31.0625 31.0625zm0 0"/></svg>